<?xml version="1.0" encoding="utf-8"?>
<svg width="24" height="18" viewBox="0 0 24 18" fill="none" xmlns="http://www.w3.org/2000/svg">
  <path d="M 6.915 0.033 L 17.163 0.033 C 19.372 0.033 21.163 1.824 21.163 4.033 L 21.163 14.001 C 21.163 16.21 19.372 18.001 17.163 18.001 L 6.915 18.001 C 4.706 18.001 2.915 16.21 2.915 14.001 L 2.915 4.033 C 2.915 1.824 4.706 0.033 6.915 0.033 Z M 16.436 6.127 C 17.32 6.243 18.155 6.604 18.845 7.17 C 17.638 4.635 15.139 3.217 11.987 3.217 C 8.877 3.217 6.361 4.633 5.14 7.161 C 5.772 6.645 6.527 6.3 7.33 6.159 C 8.386 5.008 10.048 4.411 11.987 4.411 C 13.763 4.411 15.36 5.024 16.436 6.127 Z M 18.52 13.577 C 19.238 12.859 19.641 11.886 19.641 10.871 C 19.641 9.856 19.238 8.883 18.52 8.165 C 17.803 7.447 16.829 7.044 15.814 7.044 L 8.16 7.044 C 7.533 7.044 6.916 7.198 6.362 7.492 C 5.809 7.787 5.336 8.213 4.986 8.733 C 4.636 9.253 4.419 9.851 4.354 10.475 C 4.289 11.098 4.378 11.728 4.614 12.309 C 4.849 12.89 5.224 13.404 5.705 13.807 C 6.186 14.209 6.758 14.487 7.372 14.616 C 7.985 14.745 8.621 14.722 9.223 14.547 C 9.826 14.373 10.376 14.054 10.826 13.617 L 10.828 13.615 C 10.91 13.553 10.999 13.499 11.093 13.455 C 11.29 13.361 11.591 13.263 11.987 13.263 C 12.296 13.259 12.602 13.325 12.883 13.455 C 12.976 13.499 13.064 13.553 13.147 13.615 L 13.149 13.617 C 13.862 14.311 14.819 14.699 15.814 14.698 C 16.829 14.698 17.803 14.295 18.52 13.577 Z" style="fill: rgb(255, 255, 255);"/>
</svg>